# xmcd
#
# Track frame offsets:
#	150
#	23239
#	42209
#	58685
#	84252
#	110248
#	146437
#	163599
#	190800
#	206424
#	226775
#	244928
#	259451
#	277256
#
# Disc length: 3909 seconds
#
# Revision: 3
# Processed by: cddbd v1.5.2PL0 Copyright (c) Steve Scherf et al.
# Submitted via: EasyCDDAExtractor 15.3.0.1
#
DISCID=c80f430e
DTITLE=Alejandra Guzman - 20 Años De Exitos En Vivo Con Moderatto
DYEAR=2011
DGENRE=Latin
TTITLE0=Verano Peligroso
TTITLE1=Mirala, Miralo
TTITLE2=No Te Lo Tomes Personal
TTITLE3=Llama Por Favor
TTITLE4=Volverte A Amar
TTITLE5=Hacer El Amor Con Otro
TTITLE6=Ya Lo Veia Venir
TTITLE7=Güera
TTITLE8=Mala Hierba (Featuring Vico C)
TTITLE9=De Verdad
TTITLE10=Dia De Suerte
TTITLE11=Eternamente Bella (Featuring Jenni Rivera)
TTITLE12=Un Grito En La Noche
TTITLE13=Dia De Suerte (Bonus Track) (Version Estudio)
EXTD=
EXTT0=
EXTT1=
EXTT2=
EXTT3=
EXTT4=
EXTT5=
EXTT6=
EXTT7=
EXTT8=
EXTT9=
EXTT10=
EXTT11=
EXTT12=
EXTT13=
PLAYORDER=
